<svg xmlns="http://www.w3.org/2000/svg" width="499" height="301.24" style=""><rect id="backgroundrect" width="100%" height="100%" x="0" y="0" fill="none" stroke="none"/><title>LogoDivConLey</title><g class="currentLayer" style=""><title>Layer 1</title><path d="M77.46,3.859999999552965 v9.05 A2.49,2.49 0 0 1 75,15.399999999552966 H49.91 a2.49,2.49 0 0 0 -2.49,2.49 v88.64 A2.48,2.48 0 0 1 44.93,109.01999999955297 H32.37 a2.48,2.48 0 0 1 -2.48,-2.49 V17.889999999552966 a2.49,2.49 0 0 0 -2.49,-2.49 H2.49 A2.49,2.49 0 0 1 0,12.909999999552966 v-9 A2.48,2.48 0 0 1 2.49,1.3699999995529653 H75 A2.48,2.48 0 0 1 77.46,3.859999999552965 z" id="svg_1" class="" fill="#ffffff" fill-opacity="1"/><path d="M142.85,107.84999999955296 L117.48,67.18999999955297 A2.49,2.49 0 0 0 115.37,66.01999999955297 h-8.48 a2.48,2.48 0 0 0 -2.49,2.49 v38 a2.49,2.49 0 0 1 -2.49,2.49 H89.5 A2.48,2.48 0 0 1 87,106.52999999955297 V3.859999999552965 A2.48,2.48 0 0 1 89.5,1.3699999995529653 H125 q18.45,0 28,9 t9.53,23.78 q0,12.66 -7.09,20.74 q-6.15,7 -17.05,9.66 a2.48,2.48 0 0 0 -1.5,3.75 l23.78,36.88 a2.49,2.49 0 0 1 -2.09,3.84 H145 A2.5,2.5 0 0 1 142.85,107.84999999955296 zM104.4,51.17999999955296 a2.48,2.48 0 0 0 2.49,2.49 h16.72 q21,0 21,-18.6 q0,-8.85 -5.11,-13.8 t-15.93,-5 H106.89 a2.49,2.49 0 0 0 -2.49,2.49 z" id="svg_2" class="" fill="#ffffff" fill-opacity="1"/><path d="M392.81,109.01999999955297 H379.26 a2.48,2.48 0 0 1 -2.08,-1.12 l-47,-71.39 a2.48,2.48 0 0 0 -4.5600000000000005,1.37 v68.65 a2.49,2.49 0 0 1 -2.49,2.49 H310.72 a2.49,2.49 0 0 1 -2.49,-2.49 V4.019999999552965 a2.5,2.5 0 0 1 2.49,-2.49 h13.55 a2.47,2.47 0 0 1 2.08,1.13 l47,71.65 a2.49,2.49 0 0 0 4.57,-1.36 V4.019999999552965 A2.49,2.49 0 0 1 380.4,1.5199999995529652 h12.41 A2.5,2.5 0 0 1 395.3,4.019999999552965 V106.52999999955297 A2.49,2.49 0 0 1 392.81,109.01999999955297 z" id="svg_3" class="" fill="#ffffff" fill-opacity="1"/><path d="M475.3,95.06999999955296 A27.67,27.67 0 0 1 463.71,106.01999999955297 q-7.77,4.13 -19.06,4.12 A47.73,47.73 0 0 1 425,106.19999999955297 a34.22,34.22 0 0 1 -13.870000000000001,-10.9 a30.24,30.24 0 0 1 -5.58,-13.23 A2.51,2.51 0 0 1 408,79.12999999955296 h13.66 A2.45,2.45 0 0 1 424.06,81.01999999955297 a19.09,19.09 0 0 0 5.72,10.14 q5.27,5 14.11,5 c5.28,0 9.38,-1.42 12.27,-4.27 a14.7,14.7 0 0 0 4.35,-11 a14.17,14.17 0 0 0 -3.2,-9.53 a22.6,22.6 0 0 0 -7.93,-5.87 q-4.72,-2.13 -13,-4.88 A112.54,112.54 0 0 1 420,54.27999999955296 A29.65,29.65 0 0 1 409.28,45.019999999552965 q-4.42,-6.1 -4.43,-16 a27.35,27.35 0 0 1 4.27,-15.25 a27.83,27.83 0 0 1 12.2,-10.14 A44,44 0 0 1 439.62,0.019999999552965164 q16.47,0 26.15,7.93 a29.52,29.52 0 0 1 10.6,17.71 a2.51,2.51 0 0 1 -2.44,3 H460.05 a2.43,2.43 0 0 1 -2.37,-1.73 a18.31,18.31 0 0 0 -5.33,-8.71 q-4.65,-4.35 -12.73,-4.35 q-7.32,0 -11.74,3.74 t-4.42,10.75 a13.47,13.47 0 0 0 3.05,9.07 a21,21 0 0 0 7.7,5.640000000000001 q4.65,2.06 12.73,4.8100000000000005 a110.78,110.78 0 0 1 16.69,6.48 a30.19,30.19 0 0 1 11,9.53 q4.5,6.26 4.5,16.46 A29.56,29.56 0 0 1 475.3,95.06999999955296 z" id="svg_4" class="" fill="#ffffff" fill-opacity="1"/><path d="M101.28,124.01999999955297 v9.05 a2.48,2.48 0 0 1 -2.49,2.49 H57.57 a2.49,2.49 0 0 0 -2.49,2.49 v28.42 A2.49,2.49 0 0 0 57.57,169.01999999955297 H90.71 a2.48,2.48 0 0 1 2.49,2.48 v8.45 a2.48,2.48 0 0 1 -2.49,2.48 H57.57 a2.49,2.49 0 0 0 -2.49,2.49 v41.84 a2.49,2.49 0 0 1 -2.49,2.49 H40.19 a2.49,2.49 0 0 1 -2.49,-2.49 V124.01999999955297 a2.48,2.48 0 0 1 2.49,-2.48 h58.6 A2.48,2.48 0 0 1 101.28,124.01999999955297 z" id="svg_5" class="" fill="#ffffff" fill-opacity="1"/><path d="M295.34,229.84999999955298 L270,189.18999999955295 a2.47,2.47 0 0 0 -2.11,-1.17 h-8.48 a2.48,2.48 0 0 0 -2.49,2.49 v38 a2.48,2.48 0 0 1 -2.49,2.49 H242 a2.48,2.48 0 0 1 -2.48,-2.49 V125.85999999955297 a2.48,2.48 0 0 1 2.48,-2.49 h35.48 q18.45,0 28,9 T315,156.14999999955296 q0,12.66 -7.09,20.74 q-6.15,7 -17.05,9.66 a2.48,2.48 0 0 0 -1.5,3.75 l23.78,36.88 A2.49,2.49 0 0 1 311,231.01999999955297 H297.45 A2.47,2.47 0 0 1 295.34,229.84999999955298 zm-38.46,-56.67 a2.48,2.48 0 0 0 2.49,2.49 h16.72 q21,0 21,-18.6 q0,-8.85 -5.1,-13.8 t-15.94,-5 H259.37 a2.49,2.49 0 0 0 -2.49,2.49 z" id="svg_6" class="" fill="#ffffff" fill-opacity="1"/><path d="M443.2,127.52999999955297 v101 a2.49,2.49 0 0 1 -2.49,2.49 H428.15 a2.49,2.49 0 0 1 -2.49,-2.49 V164.93999999955295 a2.49,2.49 0 0 0 -4.8100000000000005,-0.9 l-25.22,65.39 a2.48,2.48 0 0 1 -2.3200000000000003,1.59 H381.47 a2.48,2.48 0 0 1 -2.3200000000000003,-1.59 L353.77,164.01999999955297 a2.48,2.48 0 0 0 -4.8,0.9 v63.65 a2.49,2.49 0 0 1 -2.49,2.49 H334.07 a2.49,2.49 0 0 1 -2.49,-2.49 v-101 a2.49,2.49 0 0 1 2.49,-2.48 H351 a2.48,2.48 0 0 1 2.3,1.53 l32.12,77.5 a2.49,2.49 0 0 0 4.6,0 l31.55,-77.46 a2.48,2.48 0 0 1 2.3,-1.55 h16.88 A2.49,2.49 0 0 1 443.2,127.52999999955297 z" id="svg_7" class="" fill="#ffffff" fill-opacity="1"/><path d="M268.94,44.17999999955296 L244.15,1.3299999995529652 A2.47,2.47 0 0 0 242,0.08999999955296517 H228.75 a2.49,2.49 0 0 0 -2.15,1.24 L205,38.64999999955297 a2.49,2.49 0 0 0 0.9500000000000001,3.43 l8.48,4.66 a2.48,2.48 0 0 0 3.35,-0.93 l15.58,-26.93 a2.49,2.49 0 0 1 4.3,0 l10.88,18.7 a2.49,2.49 0 0 1 -0.8900000000000001,3.4 l-7.88,4.63 a1.24,1.24 0 0 0 0.6300000000000001,2.31 h26.43 A2.48,2.48 0 0 0 268.94,44.17999999955296 z" id="svg_8" class="" fill="#ffffff" fill-opacity="1"/><path d="M239.54,109.14999999955296 l49.79,0 a2.52,2.52 0 0 0 2.16,-1.24 L298,96.63999999955297 a2.49,2.49 0 0 0 0,-2.48 L276.32,56.49999999955296 a2.48,2.48 0 0 0 -3.44,-0.8900000000000001 l-8.28,5 a2.49,2.49 0 0 0 -0.8700000000000001,3.37 l15.53,27 a2.48,2.48 0 0 1 -2.14,3.73 l-21.63,0.07 a2.49,2.49 0 0 1 -2.5,-2.47 l-0.07,-9.14 a1.24,1.24 0 0 0 -2.3200000000000003,-0.6100000000000001 l-13.22,22.88 A2.5,2.5 0 0 0 239.54,109.14999999955296 z" id="svg_9" class="" fill="#ffffff" fill-opacity="1"/><path d="M198.27,50.81999999955296 L173.37,94.01999999955297 a2.51,2.51 0 0 0 0,2.49 l6.42,11.13 a2.5,2.5 0 0 0 2.15,1.25 l43.53,0.09000000000000002 a2.5,2.5 0 0 0 2.5,-2.54 l-0.2,-9.68 a2.49,2.49 0 0 0 -2.49,-2.43 l-31.11,0 A2.48,2.48 0 0 1 192,90.59999999955296 l10.75,-18.77 a2.5,2.5 0 0 1 3.39,-0.93 l8,4.51 a1.24,1.24 0 0 0 1.6900000000000002,-1.7000000000000002 L202.58,50.81999999955296 A2.49,2.49 0 0 0 198.27,50.81999999955296 z" id="svg_10" class="" fill="#ffffff" fill-opacity="1"/><path d="M163,142.21999999955295 c-0.53,0.42000000000000004 -0.92,0.77 -1.35,1.05 a1.86,1.86 0 0 0 -0.5,2.5 c0.11000000000000001,0.25 1.26,0.16000000000000003 1.8,-0.1 c1.17,-0.5900000000000001 2.24,-1.4300000000000002 3.4,-2.07 a1.09,1.09 0 0 1 1.07,0.25 a3.92,3.92 0 0 1 0.78,1.77 c0.05000000000000001,0.52 -0.8300000000000001,1.13 0.19000000000000003,1.6400000000000001 a5.59,5.59 0 0 1 -0.6200000000000001,2.08 c-0.16000000000000003,0.27 -0.9,0.09000000000000002 -1.37,0.15000000000000002 a9.52,9.52 0 0 0 -1.6,0.25 c-0.54,0.16000000000000003 -1,0.6100000000000001 -1.56,0.6300000000000001 c-3.24,0.17 -6,1.78 -8.79,3.38 c-0.36000000000000004,0.21000000000000002 -0.56,0.93 -0.6800000000000002,1.45 c-0.19000000000000003,0.8200000000000001 -0.25,1.6700000000000002 -0.37000000000000005,2.51 l-0.38000000000000006,0.14 a8.8,8.8 0 0 1 -0.7100000000000001,-1.82 a2,2 0 0 0 -1.7600000000000002,-1.8 a4.86,4.86 0 0 0 -5.38,3.46 c-0.45,1.82 0.12000000000000001,2.6 1.81,2.52 c0.29000000000000004,0 0.7400000000000001,0.1 0.8300000000000001,0.30000000000000004 a1.19,1.19 0 0 1 -0.22000000000000003,0.9500000000000001 a7.06,7.06 0 0 1 -1.15,1 l0.42000000000000004,0.21000000000000002 a14,14 0 0 1 0.29000000000000004,2.3 c0,1.4100000000000001 0.27,2.48 1.52,3.11 s2,0.23 2.7800000000000002,-0.81 a1.3,1.3 0 0 1 1.3,-0.15000000000000002 c2.1,1.22 4.15,2.5300000000000002 6.22,3.8200000000000003 a8,8 0 0 1 3.2800000000000002,3.87 c0.6900000000000002,1.6500000000000001 1.4,3.36 3.34,3.72 a4.38,4.38 0 0 1 1.4300000000000002,0.7200000000000001 c2,1.23 2.19,2.87 0.7400000000000001,4.8100000000000005 a13,13 0 0 0 -1.59,2.91 c-0.8700000000000001,2.16 -2,3.84 -4.16,4.69 c-1,0.39000000000000007 -1.6800000000000002,1.8900000000000001 -2.51,2.87 s-1.7600000000000002,2 -2.66,3 a32.36,32.36 0 0 0 -2.3,2.39 a5.75,5.75 0 0 0 -0.7400000000000001,5.11 c0.13,0.5 0.18000000000000002,1 0.31000000000000005,1.84 a7.68,7.68 0 0 1 -3.92,-5.39 a39.16,39.16 0 0 1 0,-12.69 a6.12,6.12 0 0 0 -0.36000000000000004,-1.92 c0,-0.15000000000000002 -0.19000000000000003,-0.30000000000000004 -0.17,-0.42000000000000004 c0.41000000000000003,-2.68 -1.79,-3.68 -2.8600000000000003,-5.38 a7.32,7.32 0 0 1 -0.15000000000000002,-7.3100000000000005 a23.78,23.78 0 0 0 1.29,-2.11 c0.8500000000000001,-1.71 0.6800000000000002,-2.44 -0.6700000000000002,-3.6900000000000004 a3,3 0 0 1 -0.78,-1.08 c-0.52,-1.36 -0.91,-2.79 -1.48,-4.12 c-0.2,-0.45 -0.79,-0.7100000000000001 -1.22,-1 c-1.6600000000000001,-1.18 -1.8,-1.7400000000000002 -0.79,-3.55 q6.69,-12 19,-15.92 a5.73,5.73 0 0 1 0.56,-0.14 C162.55,142.09999999955298 162.65,142.14999999955296 163,142.21999999955295 z" id="svg_11" class="" fill="#ffffff" fill-opacity="1"/><path d="M188.47,205.47999999955297 c0.6700000000000002,-1.6300000000000001 1.32,-2.92 1.73,-4.3 a6.67,6.67 0 0 0 0.31000000000000005,-3.08 a4.85,4.85 0 0 1 1.1400000000000001,-4.53 a5,5 0 0 0 1.13,-5.47 c-0.35000000000000003,-1 0.06000000000000001,-2.35 0.18000000000000002,-3.5300000000000002 s0.29000000000000004,-2.23 0.48000000000000004,-3.62 a49.81,49.81 0 0 1 -6.76,-0.52 c-2.4,-0.52 -4.19,-2.42 -5.47,-4.6 c-0.51,-0.8800000000000001 -0.1,-2.47 0,-3.73 a24.57,24.57 0 0 1 0.6800000000000002,-5.1 a8.07,8.07 0 0 1 2.06,-2.6500000000000004 c0.35000000000000003,-0.39000000000000007 1,-0.53 1.24,-1 a3.74,3.74 0 0 1 2.72,-1.84 c3.18,-0.44000000000000006 6.26,-0.48000000000000004 9,1.94 a4.92,4.92 0 0 0 2.43,1 c0.78,0.12000000000000001 1.33,0.23 1.61,1.19 c4,14.11 -0.15000000000000002,30 -11.63,39.38 A7.06,7.06 0 0 1 188.47,205.47999999955297 z" id="svg_12" class="" fill="#ffffff" fill-opacity="1"/><path d="M197.09,160.39999999955296 l-0.6600000000000001,0.52 l-0.7400000000000001,-1.6800000000000002 l-1.34,0.7100000000000001 l-0.55,-1.7200000000000002 L191,157.14999999955296 c-0.11000000000000001,0.36000000000000004 -0.19000000000000003,0.7500000000000001 -0.33000000000000007,1.11 c-0.24000000000000002,0.5700000000000001 -0.4,1.42 -0.8,1.62 c-0.8600000000000001,0.42000000000000004 -1.9100000000000001,0.6700000000000002 -2.6500000000000004,-0.33000000000000007 s-1.13,-1.82 -1.8,-2.92 a11.76,11.76 0 0 1 1.8900000000000001,-0.77 c2.54,-0.49000000000000005 3.12,-1.21 3,-3.93 c0,-0.37000000000000005 0,-0.7400000000000001 0,-0.8600000000000001 a32.85,32.85 0 0 1 -3.71,-2.77 c-0.41000000000000003,-0.4 -0.29000000000000004,-1.47 -0.24000000000000002,-2.34 a32.63,32.63 0 0 1 13,15.41 l-0.31000000000000005,0.46 z" id="svg_13" class="" fill="#ffffff" fill-opacity="1"/><path d="M177,141.62999999955298 l-4.8,4.73 a4.5,4.5 0 0 1 -1.7000000000000002,-4.29 c0.12000000000000001,-0.42000000000000004 0.6800000000000002,-1 1,-1 C173.34,141.18999999955295 175.14,141.43999999955295 177,141.62999999955298 z" id="svg_14" class="" fill="#ffffff" fill-opacity="1"/><path d="M185.47,151.33999999955296 l-1.23,-0.27 a7.73,7.73 0 0 0 0.42000000000000004,-1 c0.1,-0.41000000000000003 0.12000000000000001,-0.8400000000000001 0.26,-1.84 l3.36,3.93 C186.49,153.90999999955295 186.09,153.72999999955297 185.47,151.33999999955296 z" id="svg_15" class="" fill="#ffffff" fill-opacity="1"/><path d="M164.45,141.55999999955296 l5.15,-0.6000000000000001 l0.16000000000000003,0.36000000000000004 l-1.49,1.48 l0,-0.53 l-3.72,-0.45 z" id="svg_16" class="" fill="#ffffff" fill-opacity="1"/><path d="M175.19,145.01999999955297 a9.05,9.05 0 0 1 1.31,-0.5900000000000001 a4.49,4.49 0 0 1 1.1600000000000001,0 c0,0.36000000000000004 0.1,0.8400000000000001 -0.07,1.06 s-0.7100000000000001,0.7200000000000001 -1.05,0.6900000000000002 a4.54,4.54 0 0 1 -1.45,-0.6800000000000002 z" id="svg_17" class="" fill="#ffffff" fill-opacity="1"/><path d="M150.9,160.01999999955297 c1.49,-1.29 2.6,1.07 4,0.42000000000000004 l-0.07,0.6600000000000001 l-4,-0.53 z" id="svg_18" class="" fill="#ffffff" fill-opacity="1"/><path d="M197.55,127.89999999955296 a49.89,49.89 0 0 1 19,19.55 a57.74,57.74 0 0 1 6.93,28.38 a57.74,57.74 0 0 1 -6.93,28.38 a50.5,50.5 0 0 1 -19,19.63 a55.35,55.35 0 0 1 -54.17,0 a51.12,51.12 0 0 1 -19.1,-19.63 a57.24,57.24 0 0 1 -7,-28.38 a57.24,57.24 0 0 1 7,-28.38 a50.5,50.5 0 0 1 19.1,-19.55 a55.9,55.9 0 0 1 54.17,0 zm-45.42,13.84 a32.2,32.2 0 0 0 -12.56,13.55 a44.75,44.75 0 0 0 -4.49,20.54 a44.75,44.75 0 0 0 4.49,20.54 a32.14,32.14 0 0 0 12.56,13.55 a35.8,35.8 0 0 0 18.41,4.72 a35.15,35.15 0 0 0 18.19,-4.72 a32.32,32.32 0 0 0 12.47,-13.55 a44.62,44.62 0 0 0 4.49,-20.54 a44.62,44.62 0 0 0 -4.49,-20.54 a32.38,32.38 0 0 0 -12.47,-13.55 A35.15,35.15 0 0 0 170.54,137.01999999955297 A35.8,35.8 0 0 0 152.13,141.73999999955296 z" id="svg_19" class="" fill="#ffffff" fill-opacity="1"/><path d="M184.83,270.72999999955294 a15.11,15.11 0 0 0 -2.63,0.52 c-0.8800000000000001,0.26 -1.75,0.54 -2.6,0.8400000000000001 s-1.7200000000000002,0.5700000000000001 -2.58,0.8200000000000001 a14.81,14.81 0 0 1 -2.6500000000000004,0.53 a3.56,3.56 0 0 1 -0.8600000000000001,0 c-0.29000000000000004,0 -0.46,-0.26 -0.5,-0.6700000000000002 a1.3,1.3 0 0 1 0.26,-0.8800000000000001 a1.12,1.12 0 0 1 0.7100000000000001,-0.55 l10.870000000000001,-2.75 c0,-0.12000000000000001 0,-0.29000000000000004 0.07,-0.53 a5,5 0 0 1 0.15000000000000002,-0.7300000000000001 a2.34,2.34 0 0 1 0.33000000000000007,-0.6500000000000001 a0.7600000000000001,0.7600000000000001 0 0 1 0.55,-0.33000000000000007 a1.22,1.22 0 0 1 0.81,0.16000000000000003 a3,3 0 0 1 0.55,0.51 l0.43000000000000005,0.52 a0.49000000000000005,0.49000000000000005 0 0 0 0.44000000000000006,0.2 l0.33000000000000007,0 l1.3,-0.28 l2.06,-0.45 l2.46,-0.52 q1.3,-0.29000000000000004 2.49,-0.51 l2.08,-0.42000000000000004 c0.5900000000000001,-0.13 1,-0.24000000000000002 1.29,-0.32000000000000006 l0.6000000000000001,-0.09000000000000002 l0.6800000000000002,-0.09000000000000002 a1.53,1.53 0 0 1 -0.7100000000000001,1.3900000000000001 a8.21,8.21 0 0 1 -2.06,1.08 a18.87,18.87 0 0 1 -2.8200000000000003,0.8400000000000001 q-1.57,0.3400000000000001 -3.06,0.6300000000000001 l-2.74,0.49000000000000005 a19.22,19.22 0 0 0 -1.8900000000000001,0.4 a40.29,40.29 0 0 0 0.77,6.08 q0.6400000000000001,3.15 1.45,6.3100000000000005 c0.54,2.11 1.05,4.2 1.54,6.29 a46.23,46.23 0 0 1 1,6 a2.9,2.9 0 0 1 0.24000000000000002,0.8900000000000001 a0.53,0.53 0 0 1 -0.18000000000000002,0.48000000000000004 a1.22,1.22 0 0 1 -0.6000000000000001,0.18000000000000002 c-0.28,0 -0.6100000000000001,0.05000000000000001 -1,0.07 a34.05,34.05 0 0 1 -1.08,-3.41 c-0.3400000000000001,-1.31 -0.6700000000000002,-2.72 -1,-4.22 s-0.6400000000000001,-3.07 -1,-4.67 s-0.6300000000000001,-3.2 -0.93,-4.78 s-0.6100000000000001,-3.08 -0.93,-4.52 s-0.6400000000000001,-2.74 -1,-3.89 z" id="svg_20" class="" fill="#ffffff" fill-opacity="1"/><path d="M211.26,289.26999999955297 a5,5 0 0 1 -0.6600000000000001,1.42 a15.64,15.64 0 0 1 -1.33,1.84 a13.66,13.66 0 0 1 -1.6400000000000001,1.6700000000000002 a3,3 0 0 1 -1.56,0.81 a2.54,2.54 0 0 1 -2.29,-1 a9.19,9.19 0 0 1 -1.62,-3 a26.48,26.48 0 0 1 -1.07,-4.24 c-0.27,-1.57 -0.5,-3.11 -0.6800000000000002,-4.61 s-0.3400000000000001,-2.88 -0.47000000000000003,-4.12 a26.63,26.63 0 0 0 -0.41000000000000003,-2.79 a0.7200000000000001,0.7200000000000001 0 0 1 0.38000000000000006,-0.53 a1.82,1.82 0 0 1 0.6300000000000001,-0.15000000000000002 a1.7000000000000002,1.7000000000000002 0 0 1 0.6000000000000001,0 a0.8900000000000001,0.8900000000000001 0 0 1 0.53,0.44000000000000006 c0,0.31000000000000005 0.09000000000000002,0.81 0.18000000000000002,1.52 s0.2,1.52 0.35000000000000003,2.4 s0.30000000000000004,1.82 0.45,2.79 s0.30000000000000004,1.8900000000000001 0.43000000000000005,2.7600000000000002 s0.26,1.6600000000000001 0.37000000000000005,2.36 s0.2,1.2 0.27,1.53 s0.11000000000000001,0.5 0.2,0.9400000000000001 a11.23,11.23 0 0 0 0.35000000000000003,1.35 a6.75,6.75 0 0 0 0.5,1.26 c0.19000000000000003,0.37000000000000005 0.41000000000000003,0.56 0.6600000000000001,0.56 a1.92,1.92 0 0 0 1.2,-0.6700000000000002 a8.29,8.29 0 0 0 1.12,-1.48 a14.6,14.6 0 0 0 1,-1.94 c0.29000000000000004,-0.6900000000000002 0.55,-1.36 0.77,-2 a12.45,12.45 0 0 0 0.49000000000000005,-1.7400000000000002 a8.13,8.13 0 0 0 0.16000000000000003,-1.1 c0,-0.47000000000000003 0,-1.1400000000000001 0,-2 s-0.09000000000000002,-1.8 -0.16000000000000003,-2.79 s-0.15000000000000002,-1.9300000000000002 -0.23,-2.81 s-0.14,-1.55 -0.19000000000000003,-2 l2.2800000000000002,-0.11000000000000001 q0.39000000000000007,3.33 0.5800000000000001,6 c0.13,1.8 0.30000000000000004,3.49 0.49000000000000005,5.07 a36.26,36.26 0 0 0 0.8400000000000001,4.55 a24.54,24.54 0 0 0 1.6800000000000002,4.49 a3.88,3.88 0 0 1 -0.46,0.4 a1.18,1.18 0 0 1 -0.51,0.28 a1.42,1.42 0 0 1 -1.45,-0.53 a4.59,4.59 0 0 1 -0.6200000000000001,-1.56 c-0.14,-0.6200000000000001 -0.25,-1.23 -0.36000000000000004,-1.84 A2.3200000000000003,2.3200000000000003 0 0 0 211.26,289.26999999955297 z" id="svg_21" class="" fill="#ffffff" fill-opacity="1"/><path d="M248.22,289.179999999553 c-0.21000000000000002,-0.7000000000000001 -0.42000000000000004,-1.54 -0.6200000000000001,-2.5300000000000002 s-0.41000000000000003,-2 -0.6200000000000001,-3 s-0.45,-2 -0.6900000000000002,-2.8600000000000003 a7.83,7.83 0 0 0 -0.91,-2.16 a66.1,66.1 0 0 1 -3,7.12 a17.33,17.33 0 0 1 -2.46,3.79 a3.15,3.15 0 0 1 -1.94,1.22 a1.75,1.75 0 0 1 -1.4300000000000002,-0.6000000000000001 a4.39,4.39 0 0 1 -0.9500000000000001,-1.71 a16.61,16.61 0 0 1 -0.52,-2 a11.620000000000001,11.620000000000001 0 0 1 0.15000000000000002,-2.59 c0.16000000000000003,-1.13 0.41000000000000003,-2.37 0.7400000000000001,-3.72 s0.7500000000000001,-2.73 1.25,-4.15 a31,31 0 0 1 1.7000000000000002,-3.88 a15.16,15.16 0 0 1 2,-3 a3.62,3.62 0 0 1 2.2800000000000002,-1.31 a2.58,2.58 0 0 1 2.6900000000000004,0.49000000000000005 c0.6400000000000001,0.6400000000000001 0.8600000000000001,1.8 0.6700000000000002,3.49 a42.94,42.94 0 0 0 0.7100000000000001,4.63 c0.29000000000000004,1.27 0.5800000000000001,2.49 0.8800000000000001,3.6500000000000004 s0.5900000000000001,2.39 0.8800000000000001,3.66 a42.55,42.55 0 0 1 0.7100000000000001,4.63 a2.93,2.93 0 0 1 0,0.8500000000000001 c0,0.24000000000000002 -0.37000000000000005,0.39000000000000007 -1,0.46 q-0.12000000000000001,0 -0.33000000000000007,-0.18000000000000002 A0.54,0.54 0 0 1 248.22,289.179999999553 zM244.09,271.01999999955297 c-0.35000000000000003,-0.41000000000000003 -0.77,-0.41000000000000003 -1.25,0 a6.91,6.91 0 0 0 -1.46,1.94 a26.27,26.27 0 0 0 -1.47,3.15 c-0.48000000000000004,1.22 -0.92,2.44 -1.32,3.67 s-0.7400000000000001,2.41 -1,3.5 a19.06,19.06 0 0 0 -0.52,2.7 c0.11000000000000001,1 0.31000000000000005,1.53 0.6300000000000001,1.62 s0.6700000000000002,-0.1 1.06,-0.5900000000000001 a13.18,13.18 0 0 0 1.31,-2.05 c0.48000000000000004,-0.8800000000000001 0.93,-1.82 1.37,-2.81 s0.8600000000000001,-1.94 1.25,-2.87 s0.6900000000000002,-1.6800000000000002 0.91,-2.26 a14.93,14.93 0 0 0 0.41000000000000003,-1.6700000000000002 c0.08000000000000002,-0.51 0.15000000000000002,-1 0.2,-1.45 a7.28,7.28 0 0 0 0,-1.4 C244.19,272.01999999955297 244.14,271.52999999955296 244.09,271.01999999955297 z" id="svg_22" class="" fill="#ffffff" fill-opacity="1"/><path d="M253.32,300.679999999553 q0,-4.37 -0.33000000000000007,-8.27 t-0.8400000000000001,-7.67 q-0.5,-3.7800000000000002 -1.1,-7.63 c-0.41000000000000003,-2.5700000000000003 -0.77,-5.29 -1.1,-8.17 a3.35,3.35 0 0 1 0.22000000000000003,-0.92 q0.15000000000000002,-0.33000000000000007 1,-0.24000000000000002 a1.23,1.23 0 0 1 1.13,0.8600000000000001 a5.47,5.47 0 0 1 0.26,1.7000000000000002 c0,0.6300000000000001 0,1.27 -0.05000000000000001,1.92 a3.5700000000000003,3.5700000000000003 0 0 0 0.16000000000000003,1.52 c0.81,-0.7200000000000001 1.6800000000000002,-1.48 2.59,-2.27 a26.19,26.19 0 0 1 2.9,-2.15 a14.65,14.65 0 0 1 3.22,-1.54 a7.92,7.92 0 0 1 3.45,-0.38000000000000006 a5.62,5.62 0 0 1 3.14,1.15 a2.67,2.67 0 0 1 0.8900000000000001,2.16 a7,7 0 0 1 -0.8900000000000001,2.88 a22,22 0 0 1 -2.11,3.2800000000000002 a37.94,37.94 0 0 1 -2.91,3.34 q-1.6,1.6600000000000001 -3.17,3.1 c-1,0.9500000000000001 -2,1.79 -2.92,2.5300000000000002 s-1.6400000000000001,1.28 -2.18,1.6400000000000001 c0,0.33000000000000007 0,0.8500000000000001 0.05000000000000001,1.55 s0.07,1.5 0.12000000000000001,2.38 s0.11000000000000001,1.81 0.17,2.77 s0.11000000000000001,1.8900000000000001 0.16000000000000003,2.7800000000000002 s0.09000000000000002,1.6700000000000002 0.12000000000000001,2.36 s0.06000000000000001,1.2 0.09000000000000002,1.53 a1.22,1.22 0 0 1 -0.28,0.11000000000000001 a3.47,3.47 0 0 1 -0.48000000000000004,0.11000000000000001 l-0.53,0.1 a0.79,0.79 0 0 1 -0.3400000000000001,0 c-0.08000000000000002,0 -0.17,-0.06000000000000001 -0.27,-0.2 A0.91,0.91 0 0 1 253.32,300.679999999553 zm0,-22.8 a5.19,5.19 0 0 0 0.09000000000000002,1.42 c0.1,0.56 0.21000000000000002,1.15 0.35000000000000003,1.7600000000000002 s0.27,1.2 0.41000000000000003,1.77 s0.25,1.05 0.32000000000000006,1.46 a37.78,37.78 0 0 1 3.39,-2.8 q1.9500000000000002,-1.46 3.7600000000000002,-3.1 a21.49,21.49 0 0 0 3.14,-3.5700000000000003 a9.11,9.11 0 0 0 1.61,-4.21 c0.05000000000000001,-0.5900000000000001 0,-1 -0.27,-1.1600000000000001 a1.9300000000000002,1.9300000000000002 0 0 0 -1.09,-0.32000000000000006 a7.67,7.67 0 0 0 -3.56,0.6000000000000001 a16.45,16.45 0 0 0 -3.72,2 a14,14 0 0 0 -3,2.89 A6.35,6.35 0 0 0 253.29,277.879999999553 z" id="svg_23" class="" fill="#ffffff" fill-opacity="1"/><path d="M273.67,298.57999999955297 c0,-2.92 -0.11000000000000001,-5.67 -0.3400000000000001,-8.27 s-0.51,-5.16 -0.8300000000000001,-7.68 s-0.7000000000000001,-5.06 -1.11,-7.63 s-0.77,-5.29 -1.09,-8.17 a3.13,3.13 0 0 1 0.21000000000000002,-0.92 c0.11000000000000001,-0.21000000000000002 0.44000000000000006,-0.30000000000000004 1,-0.24000000000000002 a1.24,1.24 0 0 1 1.13,0.8600000000000001 a5.84,5.84 0 0 1 0.26,1.7000000000000002 c0,0.6400000000000001 0,1.28 0,1.92 a3.44,3.44 0 0 0 0.15000000000000002,1.52 c0.8200000000000001,-0.7200000000000001 1.6800000000000002,-1.48 2.6,-2.26 a25.37,25.37 0 0 1 2.9,-2.16 a15,15 0 0 1 3.21,-1.54 a8.13,8.13 0 0 1 3.46,-0.38000000000000006 a5.65,5.65 0 0 1 3.14,1.1600000000000001 a2.66,2.66 0 0 1 0.8900000000000001,2.15 a7.19,7.19 0 0 1 -0.8900000000000001,2.88 a22.09,22.09 0 0 1 -2.12,3.2800000000000002 a37.78,37.78 0 0 1 -2.9,3.34 q-1.62,1.6700000000000002 -3.18,3.1 c-1,0.9500000000000001 -2,1.8 -2.92,2.5300000000000002 s-1.6300000000000001,1.28 -2.18,1.6400000000000001 q0,0.5 0.06000000000000001,1.56 c0,0.7000000000000001 0.07,1.49 0.12000000000000001,2.38 s0.1,1.8 0.16000000000000003,2.77 s0.11000000000000001,1.8900000000000001 0.16000000000000003,2.77 s0.09000000000000002,1.6700000000000002 0.12000000000000001,2.36 s0.06000000000000001,1.2 0.1,1.53 a1.46,1.46 0 0 1 -0.28,0.11000000000000001 L275,299.01999999955297 l-0.53,0.09000000000000002 a0.79,0.79 0 0 1 -0.33000000000000007,0 q-0.12000000000000001,0 -0.27,-0.21000000000000002 A0.8,0.8 0 0 1 273.67,298.57999999955297 zm0,-22.81 a4.86,4.86 0 0 0 0.08000000000000002,1.4300000000000002 c0.1,0.56 0.22000000000000003,1.1400000000000001 0.35000000000000003,1.75 s0.27,1.2 0.41000000000000003,1.77 s0.25,1.05 0.32000000000000006,1.46 a39.57,39.57 0 0 1 3.39,-2.8 a48.32,48.32 0 0 0 3.7600000000000002,-3.1 a20.36,20.36 0 0 0 3.15,-3.5700000000000003 a9.1,9.1 0 0 0 1.6,-4.2 c0.05000000000000001,-0.5900000000000001 0,-1 -0.26,-1.1600000000000001 a1.8900000000000001,1.8900000000000001 0 0 0 -1.1,-0.33000000000000007 a7.69,7.69 0 0 0 -3.56,0.6000000000000001 a17.31,17.31 0 0 0 -3.72,2 a14,14 0 0 0 -3,2.89 A6.45,6.45 0 0 0 273.64,275.76999999955297 z" id="svg_24" class="" fill="#ffffff" fill-opacity="1"/><path d="M320,275.20999999955296 c-0.21000000000000002,0.6700000000000002 -0.48000000000000004,1.4300000000000002 -0.8200000000000001,2.3 a17.1,17.1 0 0 1 -1.24,2.5 a8.69,8.69 0 0 1 -1.7600000000000002,2.09 a4.21,4.21 0 0 1 -2.39,1 a2.72,2.72 0 0 1 -1,0 a1.77,1.77 0 0 1 -0.6700000000000002,-0.37000000000000005 a3.33,3.33 0 0 1 -0.56,-0.6500000000000001 c-0.18000000000000002,-0.26 -0.4,-0.54 -0.6500000000000001,-0.8500000000000001 c-0.23,-1.33 -0.42000000000000004,-2.7800000000000002 -0.6000000000000001,-4.33 a40.47,40.47 0 0 1 -0.25,-4.67 a24.82,24.82 0 0 1 0.39000000000000007,-4.48 a10.5,10.5 0 0 1 1.32,-3.67 a6.09,6.09 0 0 1 2.5300000000000002,-2.35 a7,7 0 0 1 4,-0.49000000000000005 a21.93,21.93 0 0 0 -0.27,-3.1 c-0.19000000000000003,-1.28 -0.42000000000000004,-2.63 -0.6700000000000002,-4.05 s-0.51,-2.7800000000000002 -0.7600000000000001,-4.1 s-0.43000000000000005,-2.41 -0.55,-3.25 a0.6300000000000001,0.6300000000000001 0 0 1 0.30000000000000004,-0.6000000000000001 a1.8800000000000001,1.8800000000000001 0 0 1 0.7300000000000001,-0.30000000000000004 a3.72,3.72 0 0 1 0.81,-0.09000000000000002 a1.47,1.47 0 0 1 0.53,0.07 c0.29000000000000004,3.39 0.6200000000000001,6.7 1,9.95 s0.7400000000000001,6.49 1.11,9.71 s0.7600000000000001,6.43 1.1400000000000001,9.6 s0.7500000000000001,6.37 1.08,9.55 c0,0.30000000000000004 0,0.6300000000000001 0,1 s-0.23,0.54 -0.6700000000000002,0.5900000000000001 a1,1 0 0 1 -0.51,-0.1 a0.7100000000000001,0.7100000000000001 0 0 1 -0.38000000000000006,-0.4 zm-3,-11.76 a3.07,3.07 0 0 0 -2.26,1.26 a9.74,9.74 0 0 0 -1.6,3 a19.53,19.53 0 0 0 -0.9,3.95 a22.63,22.63 0 0 0 -0.19000000000000003,4.06 a12.22,12.22 0 0 0 0.6000000000000001,3.37 A3,3 0 0 0 314.1,281.01999999955297 a2.52,2.52 0 0 0 1.61,-0.9 a7.91,7.91 0 0 0 1.25,-2 a15.36,15.36 0 0 0 0.9,-2.6100000000000003 c0.23,-1 0.42000000000000004,-1.87 0.5700000000000001,-2.75 s0.24000000000000002,-1.6700000000000002 0.29000000000000004,-2.38 a9.71,9.71 0 0 0 0,-1.6 c0,-0.28 -0.06000000000000001,-0.7200000000000001 -0.09000000000000002,-1.33 a15.82,15.82 0 0 0 -0.23,-1.8 a6,6 0 0 0 -0.52,-1.57 A0.93,0.93 0 0 0 317,263.449999999553 z" id="svg_25" class="" fill="#ffffff" fill-opacity="1"/><path d="M325.37,273.27999999955296 l-0.6000000000000001,0.19000000000000003 a2.73,2.73 0 0 1 -0.8700000000000001,0.13 a1.82,1.82 0 0 1 -0.8200000000000001,-0.16000000000000003 a0.77,0.77 0 0 1 -0.43000000000000005,-0.6700000000000002 a0.5800000000000001,0.5800000000000001 0 0 1 0.08000000000000002,-0.42000000000000004 c0.08000000000000002,-0.09000000000000002 0.2,-0.23 0.38000000000000006,-0.41000000000000003 a6.38,6.38 0 0 0 1.34,-2.08 a23.86,23.86 0 0 0 0.92,-2.63 c0.26,-0.93 0.55,-1.86 0.8500000000000001,-2.8 a14.14,14.14 0 0 1 1.13,-2.55 a6.13,6.13 0 0 1 1.7600000000000002,-1.9300000000000002 a5.4,5.4 0 0 1 2.7800000000000002,-0.91 a4.46,4.46 0 0 1 1.6,0.17 a7,7 0 0 1 1.6900000000000002,0.7100000000000001 a4.890000000000001,4.890000000000001 0 0 1 1.3800000000000001,1.22 a3.12,3.12 0 0 1 0.6700000000000002,1.6700000000000002 c0.16000000000000003,0.21000000000000002 0.06000000000000001,0.54 -0.29000000000000004,1 a11.54,11.54 0 0 1 -1.49,1.51 c-0.6400000000000001,0.55 -1.36,1.13 -2.17,1.7200000000000002 s-1.6,1.1600000000000001 -2.35,1.6800000000000002 l-2,1.37 a7.84,7.84 0 0 0 -1.12,0.8700000000000001 a5,5 0 0 0 -0.23,1 c0,0.36000000000000004 -0.07,0.7100000000000001 -0.08000000000000002,1 a8.21,8.21 0 0 0 0,0.8700000000000001 c0,0.26 0,0.46 0,0.6000000000000001 q0.07,0.78 0.12000000000000001,1.7400000000000002 a7.21,7.21 0 0 0 0.27,1.78 a2.58,2.58 0 0 0 0.8200000000000001,1.33 a2.46,2.46 0 0 0 1.87,0.37000000000000005 a5.11,5.11 0 0 0 2.48,-0.9500000000000001 a10.81,10.81 0 0 0 2.05,-1.9 a16.68,16.68 0 0 0 1.6600000000000001,-2.33 c0.48000000000000004,-0.8300000000000001 0.91,-1.6 1.3,-2.3200000000000003 s0.7300000000000001,-1.32 1,-1.79 s0.5900000000000001,-0.7300000000000001 0.8400000000000001,-0.7600000000000001 a3.14,3.14 0 0 1 0.9,0.05000000000000001 a0.6500000000000001,0.6500000000000001 0 0 1 0.54,0.6300000000000001 a3.81,3.81 0 0 1 -0.41000000000000003,1.84 a16.15,16.15 0 0 1 -1.34,2.34 a23.06,23.06 0 0 1 -2,2.52 a26.11,26.11 0 0 1 -2.3200000000000003,2.2800000000000002 a15.88,15.88 0 0 1 -2.37,1.7000000000000002 a5.27,5.27 0 0 1 -2.12,0.78 a3.93,3.93 0 0 1 -2.9,-0.6100000000000001 a5.08,5.08 0 0 1 -1.57,-2.13 a11.2,11.2 0 0 1 -0.7100000000000001,-2.8600000000000003 C325.61,275.10999999955294 325.49,274.15999999955295 325.37,273.27999999955296 zm6.43,-11.9 a2.4,2.4 0 0 0 -1.42,0.8300000000000001 a9.64,9.64 0 0 0 -1.29,1.8 a10.81,10.81 0 0 0 -0.9,2.09 a4.42,4.42 0 0 0 -0.26,1.7200000000000002 a5.71,5.71 0 0 0 1.7400000000000002,-0.6600000000000001 a16.08,16.08 0 0 0 2.2,-1.42 a12.94,12.94 0 0 0 1.87,-1.6900000000000002 a2.15,2.15 0 0 0 0.7100000000000001,-1.57 a0.78,0.78 0 0 0 -0.35000000000000003,-0.5900000000000001 a2.39,2.39 0 0 0 -0.7200000000000001,-0.3400000000000001 a4.890000000000001,4.890000000000001 0 0 0 -0.8300000000000001,-0.17 A4.67,4.67 0 0 0 331.8,261.379999999553 z" id="svg_26" class="" fill="#ffffff" fill-opacity="1"/><path d="M376.34,265.83999999955296 c-0.17,1 -0.42000000000000004,2.2 -0.7400000000000001,3.47 a18.34,18.34 0 0 1 -1.34,3.6100000000000003 a10.33,10.33 0 0 1 -2.13,3 a5.17,5.17 0 0 1 -3.14,1.4300000000000002 a4.05,4.05 0 0 1 -2.38,-0.36000000000000004 a4,4 0 0 1 -1.55,-1.46 a8.56,8.56 0 0 1 -0.9500000000000001,-2.15 a18.07,18.07 0 0 1 -0.56,-2.42 c-0.06000000000000001,-0.27 -0.15000000000000002,-0.8200000000000001 -0.26,-1.6600000000000001 l-0.39000000000000007,-3 c-0.14,-1.1400000000000001 -0.30000000000000004,-2.35 -0.48000000000000004,-3.64 s-0.3400000000000001,-2.49 -0.5,-3.6100000000000003 s-0.29000000000000004,-2.11 -0.41000000000000003,-2.95 s-0.19000000000000003,-1.42 -0.21000000000000002,-1.6900000000000002 a1.44,1.44 0 0 1 0,-0.6400000000000001 a0.56,0.56 0 0 1 0.25,-0.36000000000000004 a1.3800000000000001,1.3800000000000001 0 0 1 0.47000000000000003,-0.17 a3,3 0 0 1 0.47000000000000003,-0.07 l0.33000000000000007,0 a2.25,2.25 0 0 1 0.45,0 a0.8,0.8 0 0 1 0.39000000000000007,0.14 a0.52,0.52 0 0 1 0.21000000000000002,0.38000000000000006 l1.82,17.54 a4.77,4.77 0 0 0 0.38000000000000006,1.46 a5.47,5.47 0 0 0 0.78,1.32 a3.68,3.68 0 0 0 1.1400000000000001,0.9400000000000001 a2.44,2.44 0 0 0 1.44,0.26 a3.63,3.63 0 0 0 2.52,-1.94 a15.13,15.13 0 0 0 1.56,-4.1 a38.07,38.07 0 0 0 0.8300000000000001,-5.24 c0.16000000000000003,-1.8800000000000001 0.30000000000000004,-3.68 0.39000000000000007,-5.42 s0.19000000000000003,-3.26 0.26,-4.6 a11.08,11.08 0 0 1 0.39000000000000007,-2.83 q0.7000000000000001,-0.78 1.2,-0.48000000000000004 a2.16,2.16 0 0 1 0.79,1 a6.57,6.57 0 0 1 0.43000000000000005,1.54 a3.71,3.71 0 0 1 0,1.22 c0.19000000000000003,1.84 0.29000000000000004,3.68 0.30000000000000004,5.51 a54.61,54.61 0 0 0 0.31000000000000005,5.54 c0.12000000000000001,1.19 0.30000000000000004,2.36 0.53,3.5300000000000002 s0.48000000000000004,2.34 0.7400000000000001,3.5 s0.5,2.33 0.7300000000000001,3.49 a34.41,34.41 0 0 1 0.52,3.46 a5.07,5.07 0 0 1 0,0.6800000000000002 a2.2800000000000002,2.2800000000000002 0 0 1 -0.12000000000000001,0.6600000000000001 a1.9,1.9 0 0 1 -0.3400000000000001,0.54 a1.12,1.12 0 0 1 -0.6800000000000002,0.27 h-0.30000000000000004 z" id="svg_27" class="" fill="#ffffff" fill-opacity="1"/><path d="M383.79,287.16999999955294 q0,-4.36 -0.33000000000000007,-8.27 c-0.23,-2.6 -0.51,-5.15 -0.8400000000000001,-7.68 s-0.7000000000000001,-5.06 -1.1,-7.62 s-0.77,-5.29 -1.1,-8.17 a3.26,3.26 0 0 1 0.22000000000000003,-0.92 c0.1,-0.22000000000000003 0.43000000000000005,-0.30000000000000004 1,-0.25 a1.25,1.25 0 0 1 1.1400000000000001,0.8600000000000001 a5.85,5.85 0 0 1 0.25,1.7000000000000002 c0,0.6400000000000001 0,1.28 0,1.92 a3.5700000000000003,3.5700000000000003 0 0 0 0.16000000000000003,1.52 c0.81,-0.7200000000000001 1.6800000000000002,-1.47 2.6,-2.26 a23.39,23.39 0 0 1 2.9,-2.15 a14.36,14.36 0 0 1 3.21,-1.54 a8,8 0 0 1 3.46,-0.38000000000000006 a5.54,5.54 0 0 1 3.13,1.15 a2.67,2.67 0 0 1 0.8900000000000001,2.16 a6.890000000000001,6.890000000000001 0 0 1 -0.8900000000000001,2.88 a22.52,22.52 0 0 1 -2.11,3.2800000000000002 a41,41 0 0 1 -2.9,3.33 q-1.62,1.6800000000000002 -3.18,3.1 c-1,1 -2,1.8 -2.92,2.5300000000000002 s-1.6400000000000001,1.28 -2.18,1.6400000000000001 c0,0.33000000000000007 0,0.8500000000000001 0.05000000000000001,1.56 s0.07,1.5 0.13,2.38 s0.1,1.8 0.16000000000000003,2.77 s0.11000000000000001,1.8900000000000001 0.16000000000000003,2.77 s0.09000000000000002,1.6700000000000002 0.12000000000000001,2.36 s0.06000000000000001,1.2 0.09000000000000002,1.53 a1.2,1.2 0 0 1 -0.27,0.12000000000000001 a4,4 0 0 1 -0.49000000000000005,0.11000000000000001 l-0.53,0.09000000000000002 a0.6500000000000001,0.6500000000000001 0 0 1 -0.33000000000000007,0 c-0.09000000000000002,0 -0.18000000000000002,-0.06000000000000001 -0.28,-0.2 A1,1 0 0 1 383.79,287.16999999955294 zm0,-22.81 a5.26,5.26 0 0 0 0.09000000000000002,1.4300000000000002 c0.1,0.56 0.22000000000000003,1.1400000000000001 0.35000000000000003,1.75 s0.27,1.2 0.41000000000000003,1.77 s0.25,1.06 0.32000000000000006,1.47 a37.77,37.77 0 0 1 3.39,-2.81 c1.3,-1 2.56,-2 3.7600000000000002,-3.09 a21.67,21.67 0 0 0 3.15,-3.58 a9.17,9.17 0 0 0 1.6,-4.2 c0.05000000000000001,-0.5900000000000001 0,-1 -0.27,-1.1600000000000001 a1.86,1.86 0 0 0 -1.09,-0.32000000000000006 a7.53,7.53 0 0 0 -3.56,0.5900000000000001 a16.85,16.85 0 0 0 -3.72,2 a14.08,14.08 0 0 0 -3,2.9 A6.53,6.53 0 0 0 383.76,264.35999999955294 z" id="svg_28" class="" fill="#ffffff" fill-opacity="1"/><path d="M401.91,264.76999999955297 c0,-1 -0.05000000000000001,-2.08 -0.08000000000000002,-3.26 s0,-2.34 0,-3.52 a31.77,31.77 0 0 1 0.35000000000000003,-3.36 a11.59,11.59 0 0 1 0.8700000000000001,-2.9 a6.14,6.14 0 0 1 1.59,-2.13 a4.41,4.41 0 0 1 2.52,-0.9400000000000001 a1.79,1.79 0 0 1 1.6800000000000002,0.7000000000000001 a5.88,5.88 0 0 1 1,2 a14.77,14.77 0 0 1 0.51,2.5 c0.1,0.8700000000000001 0.18000000000000002,1.57 0.24000000000000002,2.12 a1.6,1.6 0 0 1 -1.4300000000000002,-0.5800000000000001 a5.39,5.39 0 0 1 -1,-1.58 a11,11 0 0 1 -0.6000000000000001,-1.81 l-0.25,-1.18 h-0.29000000000000004 a1.6600000000000001,1.6600000000000001 0 0 0 -1.22,0.91 a9.64,9.64 0 0 0 -0.9,2.12 a18.64,18.64 0 0 0 -0.6100000000000001,2.81 c-0.14,1 -0.25,2 -0.31000000000000005,3 s-0.1,1.87 -0.12000000000000001,2.6900000000000004 s0,1.45 0.05000000000000001,1.8900000000000001 a16.1,16.1 0 0 0 0.25,2.35 a8.53,8.53 0 0 0 0.7400000000000001,2.34 a5.67,5.67 0 0 0 1.35,1.79 a3.79,3.79 0 0 0 2.09,0.8900000000000001 a6.4,6.4 0 0 0 2.43,-0.6700000000000002 a4.21,4.21 0 0 0 1.4300000000000002,-1.27 A5.32,5.32 0 0 0 413,268.01999999955297 c0.16000000000000003,-0.6000000000000001 0.31000000000000005,-1.22 0.46,-1.86 s0.29000000000000004,-1.27 0.44000000000000006,-1.9 a6.42,6.42 0 0 1 0.77,-1.79 a1,1 0 0 1 0.7300000000000001,-0.05000000000000001 a0.7600000000000001,0.7600000000000001 0 0 1 0.35000000000000003,0.36000000000000004 a1.83,1.83 0 0 1 0.14,0.5700000000000001 l0.05000000000000001,0.45 a9.71,9.71 0 0 1 -0.24000000000000002,3.4 a8.54,8.54 0 0 1 -1.3900000000000001,3 a8.64,8.64 0 0 1 -2.44,2.3 a7.91,7.91 0 0 1 -3.45,1.12 a3.79,3.79 0 0 1 -2.84,-0.7600000000000001 a7.29,7.29 0 0 1 -2,-2.36 a14.09,14.09 0 0 1 -1.1600000000000001,-3 A18.89,18.89 0 0 1 401.91,264.76999999955297 z" id="svg_29" class="" fill="#ffffff" fill-opacity="1"/><path d="M429.94,271.27999999955296 l-12.39,-15.91 a0.9400000000000001,0.9400000000000001 0 0 1 -0.12000000000000001,-0.30000000000000004 a3.7600000000000002,3.7600000000000002 0 0 1 -0.08000000000000002,-0.43000000000000005 a2.09,2.09 0 0 1 0.09000000000000002,-1 c0.09000000000000002,-0.27 0.4,-0.43000000000000005 0.92,-0.49000000000000005 a1.7200000000000002,1.7200000000000002 0 0 1 0.6000000000000001,0.13 a1,1 0 0 1 0.53,0.30000000000000004 c0.7000000000000001,0.9 1.44,1.9 2.21,3 s1.56,2.22 2.38,3.33 s1.6800000000000002,2.16 2.56,3.17 a16.75,16.75 0 0 0 2.72,2.5300000000000002 l-0.6900000000000002,-16.25 l0.23,0 l0.26,-0.05000000000000001 a2.6900000000000004,2.6900000000000004 0 0 1 0.7500000000000001,0 a0.8300000000000001,0.8300000000000001 0 0 1 0.6000000000000001,0.5 c0.13,1 0.26,2.21 0.4,3.67 s0.26,2.95 0.38000000000000006,4.5 s0.23,3 0.33000000000000007,4.44 s0.19000000000000003,2.55 0.25,3.4 c0,0.55 0.07,1.3900000000000001 0.12000000000000001,2.49 s0.09000000000000002,2.36 0.13,3.75 s0.09000000000000002,2.87 0.13,4.42 s0.07,3 0.1,4.4 s0.07,2.64 0.1,3.7600000000000002 s0.05000000000000001,1.9300000000000002 0,2.43 l-2.14,0.22000000000000003 z" id="svg_30" class="" fill="#ffffff" fill-opacity="1"/><path d="M433.71,261.47999999955294 c0,-1 0,-2.08 -0.09000000000000002,-3.26 s0,-2.35 0,-3.52 a29.72,29.72 0 0 1 0.36000000000000004,-3.37 a11.31,11.31 0 0 1 0.8700000000000001,-2.9 a5.87,5.87 0 0 1 1.59,-2.12 a4.36,4.36 0 0 1 2.52,-0.9500000000000001 a1.81,1.81 0 0 1 1.6800000000000002,0.7000000000000001 a6,6 0 0 1 1,2 a15.93,15.93 0 0 1 0.5,2.51 c0.11000000000000001,0.8600000000000001 0.19000000000000003,1.57 0.25,2.12 a1.6500000000000001,1.6500000000000001 0 0 1 -1.44,-0.5800000000000001 a5.17,5.17 0 0 1 -1,-1.58 a12.44,12.44 0 0 1 -0.6100000000000001,-1.81 l-0.25,-1.18 h-0.29000000000000004 a1.6700000000000002,1.6700000000000002 0 0 0 -1.21,0.92 a9.08,9.08 0 0 0 -0.91,2.11 a18,18 0 0 0 -0.6000000000000001,2.81 c-0.15000000000000002,1 -0.25,2 -0.32000000000000006,3 s-0.1,1.8800000000000001 -0.11000000000000001,2.7 a16.65,16.65 0 0 0 0.05000000000000001,1.8900000000000001 a17.5,17.5 0 0 0 0.24000000000000002,2.35 a8.36,8.36 0 0 0 0.7400000000000001,2.33 a5.83,5.83 0 0 0 1.35,1.8 a3.87,3.87 0 0 0 2.09,0.8900000000000001 a6.35,6.35 0 0 0 2.43,-0.6700000000000002 a4.24,4.24 0 0 0 1.4300000000000002,-1.28 a5,5 0 0 0 0.7600000000000001,-1.6600000000000001 c0.17,-0.6000000000000001 0.32000000000000006,-1.21 0.46,-1.85 s0.29000000000000004,-1.28 0.45,-1.9 a5.78,5.78 0 0 1 0.77,-1.79 a0.93,0.93 0 0 1 0.7200000000000001,-0.05000000000000001 a0.7400000000000001,0.7400000000000001 0 0 1 0.35000000000000003,0.35000000000000003 a1.83,1.83 0 0 1 0.14,0.5700000000000001 l0.05000000000000001,0.46 a9.9,9.9 0 0 1 -0.23,3.39 a8.77,8.77 0 0 1 -1.3900000000000001,3 a8.65,8.65 0 0 1 -2.45,2.29 a7.87,7.87 0 0 1 -3.44,1.13 a3.81,3.81 0 0 1 -2.85,-0.77 a7.16,7.16 0 0 1 -1.9500000000000002,-2.36 a13.91,13.91 0 0 1 -1.17,-3 A19.73,19.73 0 0 1 433.71,261.47999999955294 z" id="svg_31" class="" fill="#ffffff" fill-opacity="1"/><path d="M451.81,267.01999999955297 a42.63,42.63 0 0 0 -0.1,-4.78 c-0.13,-1.9 -0.31000000000000005,-3.93 -0.54,-6.06 s-0.52,-4.35 -0.8300000000000001,-6.62 s-0.6600000000000001,-4.42 -1,-6.45 s-0.6900000000000002,-3.85 -1,-5.45 s-0.6600000000000001,-2.8600000000000003 -1,-3.77 a5.41,5.41 0 0 1 0.6000000000000001,-0.46 a1.27,1.27 0 0 1 0.6200000000000001,-0.21000000000000002 a1.1400000000000001,1.1400000000000001 0 0 1 0.5,0 a0.7500000000000001,0.7500000000000001 0 0 1 0.38000000000000006,0.4 q1.6500000000000001,8 2.8200000000000003,16.15 t2.16,16.26 c0,0.25 0.06000000000000001,0.5800000000000001 0.1,1 a2,2 0 0 1 0,0.6800000000000002 a2.19,2.19 0 0 1 -1,0.38000000000000006 a1.75,1.75 0 0 1 -0.8500000000000001,-0.17 a1.8800000000000001,1.8800000000000001 0 0 1 -0.6300000000000001,-0.45 A1,1 0 0 1 451.81,267.01999999955297 z" id="svg_32" class="" fill="#ffffff" fill-opacity="1"/><path d="M453.58,238.35999999955297 a0.7100000000000001,0.7100000000000001 0 0 1 0.26,-0.7000000000000001 a1.7000000000000002,1.7000000000000002 0 0 1 0.7300000000000001,-0.24000000000000002 c0.55,-0.05000000000000001 0.91,0.09000000000000002 1.08,0.43000000000000005 a3.42,3.42 0 0 1 0.3400000000000001,1.22 a1.58,1.58 0 0 1 -0.55,0.7000000000000001 a1.08,1.08 0 0 1 -0.7600000000000001,0.16000000000000003 a1.12,1.12 0 0 1 -0.7100000000000001,-0.45 A2.06,2.06 0 0 1 453.58,238.35999999955297 zm4,29.39 q-0.27,-2.67 -0.6800000000000002,-5.63 c-0.28,-2 -0.55,-4 -0.8300000000000001,-6 s-0.5,-4 -0.6800000000000002,-5.95 a47.8,47.8 0 0 1 -0.19000000000000003,-5.51 a1.1600000000000001,1.1600000000000001 0 0 1 0.38000000000000006,-0.1 l0.43000000000000005,-0.07 a2,2 0 0 1 0.9500000000000001,0.09000000000000002 c0.24000000000000002,0.1 0.39000000000000007,0.35000000000000003 0.43000000000000005,0.77 c0.17,1.62 0.3400000000000001,3.38 0.53,5.29 s0.37000000000000005,3.85 0.56,5.8100000000000005 s0.38000000000000006,3.91 0.5800000000000001,5.83 s0.41000000000000003,3.66 0.6200000000000001,5.22 c0.08000000000000002,0.47000000000000003 0,0.79 -0.17,1 a1.24,1.24 0 0 1 -0.7400000000000001,0.30000000000000004 a1.34,1.34 0 0 1 -0.8400000000000001,-0.14 C457.65,268.51999999955297 457.54,268.21999999955295 457.54,267.749999999553 z" id="svg_33" class="" fill="#ffffff" fill-opacity="1"/><path d="M464.24,267.34999999955295 q-1,-5.52 -1.9500000000000002,-11.06 t-2,-11.51 c-0.07,-0.6600000000000001 0.25,-1 1,-1.1 l0.33000000000000007,0 c0.09000000000000002,0 0.19000000000000003,0.1 0.33000000000000007,0.30000000000000004 a5.69,5.69 0 0 1 0.47000000000000003,1.18 q0.29000000000000004,0.8700000000000001 0.6900000000000002,2.64 c0.28,1.17 0.6200000000000001,2.71 1,4.61 s0.91,4.28 1.49,7.13 a48.11,48.11 0 0 0 0.79,-5.57 a31.25,31.25 0 0 1 0.78,-4.93 a12.35,12.35 0 0 1 1.81,-4 a8.44,8.44 0 0 1 3.85,-2.8600000000000003 a3.43,3.43 0 0 1 2.5700000000000003,1.55 a14,14 0 0 1 1.84,3.66 a32.81,32.81 0 0 1 1.25,4.84 c0.32000000000000006,1.7600000000000002 0.5800000000000001,3.45 0.77,5.06 s0.36000000000000004,3.07 0.5,4.34 s0.25,2.19 0.36000000000000004,2.73 a1.58,1.58 0 0 1 -0.31000000000000005,0.6200000000000001 a1.46,1.46 0 0 1 -0.52,0.41000000000000003 a1.1400000000000001,1.1400000000000001 0 0 1 -0.5900000000000001,0.1 a0.91,0.91 0 0 1 -0.5800000000000001,-0.38000000000000006 c0,-0.30000000000000004 -0.13,-0.91 -0.28,-1.84 s-0.33000000000000007,-2 -0.54,-3.25 s-0.44000000000000006,-2.5700000000000003 -0.6800000000000002,-4 s-0.47000000000000003,-2.73 -0.6600000000000001,-4 l-0.53,-3.26 c-0.15000000000000002,-0.92 -0.26,-1.54 -0.31000000000000005,-1.84 c-0.6900000000000002,-0.9500000000000001 -1.32,-1.47 -1.8900000000000001,-1.55 a1.87,1.87 0 0 0 -1.6400000000000001,0.7100000000000001 a7.86,7.86 0 0 0 -1.3900000000000001,2.43 a30.81,30.81 0 0 0 -1.12,3.6 c-0.3400000000000001,1.32 -0.6400000000000001,2.71 -0.91,4.15 s-0.48000000000000004,2.83 -0.6500000000000001,4.17 s-0.30000000000000004,2.54 -0.39000000000000007,3.62 s-0.14,1.9100000000000001 -0.14,2.49 a1.34,1.34 0 0 1 -0.46,0.6100000000000001 a3.15,3.15 0 0 1 -0.78,0.48000000000000004 a2.11,2.11 0 0 1 -0.8600000000000001,0.15000000000000002 A0.8500000000000001,0.8500000000000001 0 0 1 464.24,267.34999999955295 z" id="svg_34" class="" fill="#ffffff" fill-opacity="1"/><path d="M487.47,281.759999999553 a9.76,9.76 0 0 0 5.5,-2.49 a10.28,10.28 0 0 0 2.66,-4.68 a20.6,20.6 0 0 0 0.6000000000000001,-6.25 a68.92,68.92 0 0 0 -0.6900000000000002,-7.1 c-0.36000000000000004,-2.44 -0.78,-4.87 -1.24,-7.3100000000000005 s-0.78,-4.71 -1,-6.83 a75.84,75.84 0 0 1 -2.47,8.73 a25.63,25.63 0 0 1 -2.41,5.12 a5.88,5.88 0 0 1 -2.22,2.23 a2.3,2.3 0 0 1 -1.9300000000000002,0.07 a3.5,3.5 0 0 1 -1.5,-1.3800000000000001 a8.49,8.49 0 0 1 -0.9400000000000001,-2.09 a17.12,17.12 0 0 1 0.33000000000000007,-4.26 a27.34,27.34 0 0 1 1.31,-4.67 a25.24,25.24 0 0 1 2.1,-4.38 a13.12,13.12 0 0 1 2.74,-3.33 a6.3100000000000005,6.3100000000000005 0 0 1 3.21,-1.49 a4.82,4.82 0 0 1 3.48,1 a7,7 0 0 1 0.25,1.08 c0.15000000000000002,0.6900000000000002 0.32000000000000006,1.6 0.54,2.73 s0.45,2.39 0.7200000000000001,3.79 s0.54,2.8200000000000003 0.8,4.25 s0.5,2.8 0.7200000000000001,4.11 s0.42000000000000004,2.44 0.6000000000000001,3.4 a25.06,25.06 0 0 1 0.33000000000000007,5 a33.73,33.73 0 0 1 -0.56,5.24 a27.12,27.12 0 0 1 -1.3900000000000001,4.87 a13.83,13.83 0 0 1 -2.23,3.85 a6.83,6.83 0 0 1 -3.06,2.13 a5.68,5.68 0 0 1 -3.88,-0.25 l-0.37000000000000005,0 a0.7300000000000001,0.7300000000000001 0 0 1 -0.41000000000000003,-0.1 a0.27,0.27 0 0 1 -0.09000000000000002,-0.33000000000000007 A1.8800000000000001,1.8800000000000001 0 0 1 487.47,281.759999999553 zM484,259.26999999955297 c0.36000000000000004,0.8200000000000001 0.77,1.22 1.23,1.18 a2,2 0 0 0 1.37,-1 a16.46,16.46 0 0 0 1.45,-2.67 q0.7600000000000001,-1.71 1.47,-3.6900000000000004 c0.47000000000000003,-1.33 0.9400000000000001,-2.68 1.3900000000000001,-4.08 s0.8800000000000001,-2.6900000000000004 1.28,-3.9 a1.84,1.84 0 0 0 -0.29000000000000004,-0.8200000000000001 c-0.17,-0.25 -0.48000000000000004,-0.29000000000000004 -0.93,-0.14 a5.63,5.63 0 0 0 -2.13,1.35 a11,11 0 0 0 -1.8,2.33 a19.34,19.34 0 0 0 -1.4,2.93 a28.69,28.69 0 0 0 -1,3.15 a23.8,23.8 0 0 0 -0.5700000000000001,2.95 A11.19,11.19 0 0 0 484,259.26999999955297 z" id="svg_35" class="" fill="#ffffff" fill-opacity="1"/></g></svg>